<?xml version="1.0" encoding="UTF-8" standalone="no"?>
<!DOCTYPE svg PUBLIC "-//W3C//DTD SVG 1.1//EN" "http://www.w3.org/Graphics/SVG/1.1/DTD/svg11.dtd">
<svg width="100%" height="100%" viewBox="0 0 1152 576" version="1.1" xmlns="http://www.w3.org/2000/svg" xmlns:xlink="http://www.w3.org/1999/xlink" xml:space="preserve" xmlns:serif="http://www.serif.com/" style="fill-rule:evenodd;clip-rule:evenodd;">
    <g>
        <rect x="0" y="0" width="1152" height="576" style="fill:white;"/>
        <g>
            <clipPath id="_clip1">
                <rect x="0" y="0" width="1152" height="576"/>
            </clipPath>
            <g clip-path="url(#_clip1)">
                <rect x="0" y="0" width="1152" height="576" style="fill:white;stroke:white;stroke-width:2.13px;"/>
            </g>
        </g>
        <g>
            <clipPath id="_clip2">
                <rect x="10.96" y="10.96" width="565.04" height="554.08"/>
            </clipPath>
            <g clip-path="url(#_clip2)">
                <rect x="10.96" y="10.96" width="565.04" height="554.08" style="fill:white;stroke:white;stroke-width:2.13px;"/>
            </g>
        </g>
        <g>
            <clipPath id="_clip3">
                <rect x="77.21" y="21.92" width="487.83" height="480.13"/>
            </clipPath>
            <g clip-path="url(#_clip3)">
                <rect x="77.21" y="21.92" width="487.83" height="480.13" style="fill:rgb(235,235,235);"/>
                <path d="M77.21,434.2L565.04,434.2" style="fill:none;fill-rule:nonzero;stroke:white;stroke-width:1.07px;"/>
                <path d="M77.21,275.47L565.04,275.47" style="fill:none;fill-rule:nonzero;stroke:white;stroke-width:1.07px;"/>
                <path d="M77.21,116.75L565.04,116.75" style="fill:none;fill-rule:nonzero;stroke:white;stroke-width:1.07px;"/>
                <path d="M121.94,502.05L121.94,21.92" style="fill:none;fill-rule:nonzero;stroke:white;stroke-width:1.07px;"/>
                <path d="M197.1,502.05L197.1,21.92" style="fill:none;fill-rule:nonzero;stroke:white;stroke-width:1.07px;"/>
                <path d="M272.27,502.05L272.27,21.92" style="fill:none;fill-rule:nonzero;stroke:white;stroke-width:1.07px;"/>
                <path d="M347.44,502.05L347.44,21.92" style="fill:none;fill-rule:nonzero;stroke:white;stroke-width:1.07px;"/>
                <path d="M422.6,502.05L422.6,21.92" style="fill:none;fill-rule:nonzero;stroke:white;stroke-width:1.07px;"/>
                <path d="M497.77,502.05L497.77,21.92" style="fill:none;fill-rule:nonzero;stroke:white;stroke-width:1.07px;"/>
                <path d="M77.21,354.83L565.04,354.83" style="fill:none;fill-rule:nonzero;stroke:white;stroke-width:2.13px;"/>
                <path d="M77.21,196.11L565.04,196.11" style="fill:none;fill-rule:nonzero;stroke:white;stroke-width:2.13px;"/>
                <path d="M77.21,37.39L565.04,37.39" style="fill:none;fill-rule:nonzero;stroke:white;stroke-width:2.13px;"/>
                <path d="M84.35,502.05L84.35,21.92" style="fill:none;fill-rule:nonzero;stroke:white;stroke-width:2.13px;"/>
                <path d="M159.52,502.05L159.52,21.92" style="fill:none;fill-rule:nonzero;stroke:white;stroke-width:2.13px;"/>
                <path d="M234.69,502.05L234.69,21.92" style="fill:none;fill-rule:nonzero;stroke:white;stroke-width:2.13px;"/>
                <path d="M309.85,502.05L309.85,21.92" style="fill:none;fill-rule:nonzero;stroke:white;stroke-width:2.13px;"/>
                <path d="M385.02,502.05L385.02,21.92" style="fill:none;fill-rule:nonzero;stroke:white;stroke-width:2.13px;"/>
                <path d="M460.18,502.05L460.18,21.92" style="fill:none;fill-rule:nonzero;stroke:white;stroke-width:2.13px;"/>
                <path d="M535.35,502.05L535.35,21.92" style="fill:none;fill-rule:nonzero;stroke:white;stroke-width:2.13px;"/>
                <circle cx="167.04" cy="369.12" r="3.91"/>
                <circle cx="204.62" cy="362.77" r="3.91"/>
                <circle cx="272.27" cy="350.07" r="3.91"/>
                <circle cx="257.24" cy="407.21" r="3.91"/>
                <circle cx="234.69" cy="365.95" r="3.91"/>
                <circle cx="167.04" cy="372.29" r="3.91"/>
                <circle cx="272.27" cy="367.53" r="3.91"/>
                <circle cx="257.24" cy="448.48" r="3.91"/>
                <circle cx="234.69" cy="323.09" r="3.91"/>
                <circle cx="204.62" cy="389.75" r="3.91"/>
                <circle cx="159.52" cy="389.75" r="3.91"/>
                <circle cx="174.55" cy="337.38" r="3.91"/>
                <circle cx="242.2" cy="377.06" r="3.91"/>
                <circle cx="294.82" cy="440.54" r="3.91"/>
                <circle cx="197.1" cy="408.8" r="3.91"/>
                <circle cx="272.27" cy="375.47" r="3.91"/>
                <circle cx="287.3" cy="315.15" r="3.91"/>
                <circle cx="189.59" cy="443.72" r="3.91"/>
                <circle cx="264.75" cy="259.6" r="3.91"/>
                <circle cx="114.42" cy="389.75" r="3.91"/>
                <circle cx="159.52" cy="391.34" r="3.91"/>
                <circle cx="227.17" cy="419.91" r="3.91"/>
                <circle cx="197.1" cy="383.4" r="3.91"/>
                <circle cx="159.52" cy="373.88" r="3.91"/>
                <circle cx="212.14" cy="429.43" r="3.91"/>
                <circle cx="182.07" cy="345.31" r="3.91"/>
                <circle cx="212.14" cy="346.9" r="3.91"/>
                <circle cx="99.39" cy="388.17" r="3.91"/>
                <circle cx="159.52" cy="346.9" r="3.91"/>
                <circle cx="144.49" cy="362.77" r="3.91"/>
                <circle cx="144.49" cy="399.28" r="3.91"/>
                <circle cx="219.65" cy="362.77" r="3.91"/>
                <circle cx="189.59" cy="340.55" r="3.91"/>
                <circle cx="272.27" cy="411.97" r="3.91"/>
                <circle cx="279.79" cy="367.53" r="3.91"/>
                <circle cx="234.69" cy="373.88" r="3.91"/>
                <circle cx="159.52" cy="319.92" r="3.91"/>
                <circle cx="167.04" cy="392.93" r="3.91"/>
                <circle cx="189.59" cy="358.01" r="3.91"/>
                <circle cx="174.55" cy="410.39" r="3.91"/>
                <circle cx="272.27" cy="342.14" r="3.91"/>
                <circle cx="204.62" cy="418.32" r="3.91"/>
                <circle cx="279.79" cy="289.76" r="3.91"/>
                <circle cx="197.1" cy="402.45" r="3.91"/>
                <circle cx="234.69" cy="361.18" r="3.91"/>
                <circle cx="174.55" cy="337.38" r="3.91"/>
                <circle cx="152" cy="394.52" r="3.91"/>
                <circle cx="234.69" cy="418.32" r="3.91"/>
                <circle cx="242.2" cy="318.33" r="3.91"/>
                <circle cx="204.62" cy="361.18" r="3.91"/>
                <circle cx="219.65" cy="353.25" r="3.91"/>
                <circle cx="234.69" cy="434.2" r="3.91"/>
                <circle cx="309.85" cy="323.09" r="3.91"/>
                <circle cx="212.14" cy="442.13" r="3.91"/>
                <circle cx="242.2" cy="332.61" r="3.91"/>
                <circle cx="204.62" cy="370.71" r="3.91"/>
                <circle cx="257.24" cy="345.31" r="3.91"/>
                <circle cx="167.04" cy="410.39" r="3.91"/>
                <circle cx="264.75" cy="392.93" r="3.91"/>
                <circle cx="197.1" cy="423.08" r="3.91"/>
                <circle cx="272.27" cy="334.2" r="3.91"/>
                <circle cx="197.1" cy="392.93" r="3.91"/>
                <circle cx="249.72" cy="337.38" r="3.91"/>
                <circle cx="189.59" cy="411.97" r="3.91"/>
                <circle cx="249.72" cy="329.44" r="3.91"/>
                <circle cx="272.27" cy="426.26" r="3.91"/>
                <circle cx="219.65" cy="337.38" r="3.91"/>
                <circle cx="234.69" cy="419.91" r="3.91"/>
                <circle cx="294.82" cy="326.27" r="3.91"/>
                <circle cx="234.69" cy="458" r="3.91"/>
                <circle cx="234.69" cy="359.6" r="3.91"/>
                <circle cx="279.79" cy="361.18" r="3.91"/>
                <circle cx="287.3" cy="262.78" r="3.91"/>
                <circle cx="234.69" cy="426.26" r="3.91"/>
                <circle cx="272.27" cy="310.39" r="3.91"/>
                <circle cx="242.2" cy="340.55" r="3.91"/>
                <circle cx="189.59" cy="399.28" r="3.91"/>
                <circle cx="212.14" cy="415.15" r="3.91"/>
                <circle cx="272.27" cy="321.5" r="3.91"/>
                <circle cx="227.17" cy="440.54" r="3.91"/>
                <circle cx="279.79" cy="308.81" r="3.91"/>
                <circle cx="212.14" cy="407.21" r="3.91"/>
                <circle cx="257.24" cy="432.61" r="3.91"/>
                <circle cx="242.2" cy="397.69" r="3.91"/>
                <circle cx="264.75" cy="334.2" r="3.91"/>
                <circle cx="234.69" cy="413.56" r="3.91"/>
                <circle cx="227.17" cy="404.04" r="3.91"/>
                <circle cx="227.17" cy="381.82" r="3.91"/>
                <circle cx="234.69" cy="372.29" r="3.91"/>
                <circle cx="324.89" cy="423.08" r="3.91"/>
                <circle cx="347.44" cy="337.38" r="3.91"/>
                <circle cx="197.1" cy="450.07" r="3.91"/>
                <circle cx="204.62" cy="361.18" r="3.91"/>
                <circle cx="212.14" cy="415.15" r="3.91"/>
                <circle cx="369.99" cy="342.14" r="3.91"/>
                <circle cx="234.69" cy="384.99" r="3.91"/>
                <circle cx="279.79" cy="350.07" r="3.91"/>
                <circle cx="144.49" cy="464.35" r="3.91"/>
                <circle cx="249.72" cy="304.04" r="3.91"/>
                <circle cx="249.72" cy="434.2" r="3.91"/>
                <circle cx="332.4" cy="338.96" r="3.91"/>
                <circle cx="182.07" cy="391.34" r="3.91"/>
                <circle cx="234.69" cy="389.75" r="3.91"/>
                <circle cx="257.24" cy="388.17" r="3.91"/>
                <circle cx="189.59" cy="359.6" r="3.91"/>
                <circle cx="302.34" cy="377.06" r="3.91"/>
                <circle cx="234.69" cy="383.4" r="3.91"/>
                <circle cx="167.04" cy="384.99" r="3.91"/>
                <circle cx="287.3" cy="304.04" r="3.91"/>
                <circle cx="294.82" cy="384.99" r="3.91"/>
                <circle cx="242.2" cy="265.95" r="3.91"/>
                <circle cx="257.24" cy="359.6" r="3.91"/>
                <circle cx="287.3" cy="319.92" r="3.91"/>
                <circle cx="242.2" cy="361.18" r="3.91"/>
                <circle cx="279.79" cy="311.98" r="3.91"/>
                <circle cx="219.65" cy="377.06" r="3.91"/>
                <circle cx="302.34" cy="397.69" r="3.91"/>
                <circle cx="227.17" cy="423.08" r="3.91"/>
                <circle cx="227.17" cy="337.38" r="3.91"/>
                <circle cx="212.14" cy="415.15" r="3.91"/>
                <circle cx="294.82" cy="391.34" r="3.91"/>
                <circle cx="129.45" cy="351.66" r="3.91"/>
                <circle cx="324.89" cy="332.61" r="3.91"/>
                <circle cx="204.62" cy="431.02" r="3.91"/>
                <circle cx="302.34" cy="345.31" r="3.91"/>
                <circle cx="242.2" cy="373.88" r="3.91"/>
                <circle cx="272.27" cy="331.03" r="3.91"/>
                <circle cx="242.2" cy="370.71" r="3.91"/>
                <circle cx="385.02" cy="289.76" r="3.91"/>
                <circle cx="234.69" cy="378.64" r="3.91"/>
                <circle cx="287.3" cy="305.63" r="3.91"/>
                <circle cx="257.24" cy="405.63" r="3.91"/>
                <circle cx="302.34" cy="394.52" r="3.91"/>
                <circle cx="212.14" cy="384.99" r="3.91"/>
                <circle cx="234.69" cy="337.38" r="3.91"/>
                <circle cx="242.2" cy="424.67" r="3.91"/>
                <circle cx="309.85" cy="351.66" r="3.91"/>
                <circle cx="197.1" cy="402.45" r="3.91"/>
                <circle cx="257.24" cy="359.6" r="3.91"/>
                <circle cx="257.24" cy="351.66" r="3.91"/>
                <circle cx="212.14" cy="345.31" r="3.91"/>
                <circle cx="219.65" cy="480.22" r="3.91"/>
                <circle cx="234.69" cy="343.72" r="3.91"/>
                <circle cx="249.72" cy="397.69" r="3.91"/>
                <circle cx="197.1" cy="370.71" r="3.91"/>
                <circle cx="234.69" cy="367.53" r="3.91"/>
                <circle cx="189.59" cy="408.8" r="3.91"/>
                <circle cx="272.27" cy="418.32" r="3.91"/>
                <circle cx="257.24" cy="389.75" r="3.91"/>
                <circle cx="212.14" cy="418.32" r="3.91"/>
                <circle cx="317.37" cy="331.03" r="3.91"/>
                <circle cx="392.53" cy="258.02" r="3.91"/>
                <circle cx="535.35" cy="196.11" r="3.91"/>
                <circle cx="385.02" cy="216.75" r="3.91"/>
                <circle cx="445.15" cy="196.11" r="3.91"/>
                <circle cx="422.6" cy="234.21" r="3.91"/>
                <circle cx="385.02" cy="251.67" r="3.91"/>
                <circle cx="392.53" cy="269.13" r="3.91"/>
                <circle cx="452.67" cy="248.49" r="3.91"/>
                <circle cx="377.5" cy="302.46" r="3.91"/>
                <circle cx="422.6" cy="246.9" r="3.91"/>
                <circle cx="415.08" cy="340.55" r="3.91"/>
                <circle cx="430.12" cy="211.99" r="3.91"/>
                <circle cx="415.08" cy="267.54" r="3.91"/>
                <circle cx="407.57" cy="221.51" r="3.91"/>
                <circle cx="385.02" cy="262.78" r="3.91"/>
                <circle cx="437.63" cy="207.22" r="3.91"/>
                <circle cx="385.02" cy="323.09" r="3.91"/>
                <circle cx="467.7" cy="208.81" r="3.91"/>
                <circle cx="377.5" cy="256.43" r="3.91"/>
                <circle cx="475.22" cy="216.75" r="3.91"/>
                <circle cx="445.15" cy="192.94" r="3.91"/>
                <circle cx="422.6" cy="273.89" r="3.91"/>
                <circle cx="407.57" cy="251.67" r="3.91"/>
                <circle cx="422.6" cy="254.84" r="3.91"/>
                <circle cx="422.6" cy="308.81" r="3.91"/>
                <circle cx="422.6" cy="258.02" r="3.91"/>
                <circle cx="430.12" cy="283.41" r="3.91"/>
                <circle cx="422.6" cy="231.03" r="3.91"/>
                <circle cx="385.02" cy="224.68" r="3.91"/>
                <circle cx="460.18" cy="196.11" r="3.91"/>
                <circle cx="475.22" cy="238.97" r="3.91"/>
                <circle cx="377.5" cy="310.39" r="3.91"/>
                <circle cx="362.47" cy="273.89" r="3.91"/>
                <circle cx="535.35" cy="43.74" r="3.91"/>
                <circle cx="460.18" cy="210.4" r="3.91"/>
                <circle cx="460.18" cy="221.51" r="3.91"/>
                <circle cx="407.57" cy="313.57" r="3.91"/>
                <circle cx="452.67" cy="285" r="3.91"/>
                <circle cx="369.99" cy="291.35" r="3.91"/>
                <circle cx="369.99" cy="216.75" r="3.91"/>
                <circle cx="369.99" cy="311.98" r="3.91"/>
                <circle cx="497.77" cy="202.46" r="3.91"/>
                <circle cx="385.02" cy="270.71" r="3.91"/>
                <circle cx="430.12" cy="202.46" r="3.91"/>
                <circle cx="475.22" cy="188.18" r="3.91"/>
                <circle cx="437.63" cy="297.7" r="3.91"/>
                <circle cx="385.02" cy="267.54" r="3.91"/>
                <circle cx="497.77" cy="188.18" r="3.91"/>
                <circle cx="407.57" cy="277.06" r="3.91"/>
                <circle cx="422.6" cy="272.3" r="3.91"/>
                <circle cx="385.02" cy="250.08" r="3.91"/>
                <circle cx="460.18" cy="219.92" r="3.91"/>
                <circle cx="385.02" cy="273.89" r="3.91"/>
                <circle cx="497.77" cy="194.53" r="3.91"/>
                <circle cx="437.63" cy="251.67" r="3.91"/>
                <circle cx="460.18" cy="275.47" r="3.91"/>
                <circle cx="369.99" cy="294.52" r="3.91"/>
                <circle cx="460.18" cy="267.54" r="3.91"/>
                <circle cx="369.99" cy="304.04" r="3.91"/>
                <circle cx="490.25" cy="189.77" r="3.91"/>
                <circle cx="369.99" cy="270.71" r="3.91"/>
                <circle cx="467.7" cy="256.43" r="3.91"/>
                <circle cx="415.08" cy="264.36" r="3.91"/>
                <circle cx="542.87" cy="127.86" r="3.91"/>
                <circle cx="452.67" cy="262.78" r="3.91"/>
                <circle cx="535.35" cy="199.29" r="3.91"/>
                <circle cx="415.08" cy="256.43" r="3.91"/>
                <circle cx="527.83" cy="204.05" r="3.91"/>
                <circle cx="460.18" cy="299.28" r="3.91"/>
                <circle cx="482.73" cy="185" r="3.91"/>
                <circle cx="430.12" cy="232.62" r="3.91"/>
                <circle cx="467.7" cy="253.25" r="3.91"/>
                <circle cx="467.7" cy="224.68" r="3.91"/>
                <circle cx="437.63" cy="251.67" r="3.91"/>
                <circle cx="430.12" cy="253.25" r="3.91"/>
                <circle cx="535.35" cy="218.33" r="3.91"/>
                <circle cx="377.5" cy="235.79" r="3.91"/>
                <circle cx="460.18" cy="178.65" r="3.91"/>
                <circle cx="422.6" cy="272.3" r="3.91"/>
                <circle cx="482.73" cy="272.3" r="3.91"/>
                <circle cx="400.05" cy="210.4" r="3.91"/>
                <circle cx="467.7" cy="156.43" r="3.91"/>
                <circle cx="400.05" cy="237.38" r="3.91"/>
                <circle cx="490.25" cy="196.11" r="3.91"/>
                <circle cx="400.05" cy="277.06" r="3.91"/>
                <circle cx="520.32" cy="183.42" r="3.91"/>
                <circle cx="445.15" cy="300.87" r="3.91"/>
                <circle cx="445.15" cy="175.48" r="3.91"/>
                <circle cx="400.05" cy="235.79" r="3.91"/>
                <circle cx="535.35" cy="162.78" r="3.91"/>
                <circle cx="445.15" cy="235.79" r="3.91"/>
                <circle cx="520.32" cy="161.2" r="3.91"/>
                <circle cx="400.05" cy="267.54" r="3.91"/>
                <circle cx="490.25" cy="204.05" r="3.91"/>
                <circle cx="415.08" cy="283.41" r="3.91"/>
                <circle cx="505.28" cy="183.42" r="3.91"/>
                <circle cx="430.12" cy="205.64" r="3.91"/>
                <circle cx="475.22" cy="245.32" r="3.91"/>
                <circle cx="332.4" cy="221.51" r="3.91"/>
                <circle cx="497.77" cy="178.65" r="3.91"/>
                <circle cx="452.67" cy="219.92" r="3.91"/>
                <circle cx="520.32" cy="102.47" r="3.91"/>
                <circle cx="422.6" cy="240.56" r="3.91"/>
                <circle cx="520.32" cy="210.4" r="3.91"/>
                <circle cx="430.12" cy="238.97" r="3.91"/>
                <circle cx="422.6" cy="246.9" r="3.91"/>
                <circle cx="385.02" cy="327.85" r="3.91"/>
                <circle cx="452.67" cy="142.15" r="3.91"/>
                <circle cx="369.99" cy="302.46" r="3.91"/>
                <circle cx="377.5" cy="226.27" r="3.91"/>
                <circle cx="430.12" cy="188.18" r="3.91"/>
                <circle cx="527.83" cy="199.29" r="3.91"/>
                <circle cx="407.57" cy="299.28" r="3.91"/>
                <circle cx="535.35" cy="172.31" r="3.91"/>
                <circle cx="437.63" cy="256.43" r="3.91"/>
                <circle cx="535.35" cy="115.17" r="3.91"/>
                <circle cx="437.63" cy="283.41" r="3.91"/>
                <circle cx="475.22" cy="215.16" r="3.91"/>
                <circle cx="415.08" cy="240.56" r="3.91"/>
                <circle cx="422.6" cy="246.9" r="3.91"/>
                <circle cx="475.22" cy="189.77" r="3.91"/>
                <circle cx="400.05" cy="272.3" r="3.91"/>
                <circle cx="407.57" cy="197.7" r="3.91"/>
                <circle cx="249.72" cy="251.67" r="3.91"/>
                <circle cx="279.79" cy="196.11" r="3.91"/>
                <circle cx="257.24" cy="175.48" r="3.91"/>
                <circle cx="219.65" cy="269.13" r="3.91"/>
                <circle cx="287.3" cy="153.26" r="3.91"/>
                <circle cx="294.82" cy="272.3" r="3.91"/>
                <circle cx="144.49" cy="258.02" r="3.91"/>
                <circle cx="287.3" cy="175.48" r="3.91"/>
                <circle cx="272.27" cy="259.6" r="3.91"/>
                <circle cx="294.82" cy="175.48" r="3.91"/>
                <circle cx="257.24" cy="250.08" r="3.91"/>
                <circle cx="264.75" cy="169.13" r="3.91"/>
                <circle cx="197.1" cy="243.73" r="3.91"/>
                <circle cx="317.37" cy="164.37" r="3.91"/>
                <circle cx="234.69" cy="261.19" r="3.91"/>
                <circle cx="317.37" cy="188.18" r="3.91"/>
                <circle cx="287.3" cy="191.35" r="3.91"/>
                <circle cx="167.04" cy="69.14" r="3.91"/>
                <circle cx="234.69" cy="253.25" r="3.91"/>
                <circle cx="272.27" cy="208.81" r="3.91"/>
                <circle cx="167.04" cy="316.74" r="3.91"/>
                <circle cx="242.2" cy="219.92" r="3.91"/>
                <circle cx="212.14" cy="304.04" r="3.91"/>
                <circle cx="257.24" cy="186.59" r="3.91"/>
                <circle cx="272.27" cy="248.49" r="3.91"/>
                <circle cx="287.3" cy="164.37" r="3.91"/>
                <circle cx="309.85" cy="188.18" r="3.91"/>
                <circle cx="309.85" cy="204.05" r="3.91"/>
                <circle cx="242.2" cy="253.25" r="3.91"/>
                <circle cx="347.44" cy="151.67" r="3.91"/>
                <circle cx="212.14" cy="340.55" r="3.91"/>
                <circle cx="317.37" cy="129.45" r="3.91"/>
                <circle cx="212.14" cy="315.15" r="3.91"/>
                <circle cx="332.4" cy="180.24" r="3.91"/>
                <circle cx="272.27" cy="200.88" r="3.91"/>
                <circle cx="302.34" cy="235.79" r="3.91"/>
                <circle cx="272.27" cy="234.21" r="3.91"/>
                <circle cx="385.02" cy="164.37" r="3.91"/>
                <circle cx="249.72" cy="245.32" r="3.91"/>
                <circle cx="347.44" cy="140.56" r="3.91"/>
                <circle cx="385.02" cy="211.99" r="3.91"/>
                <circle cx="212.14" cy="256.43" r="3.91"/>
                <circle cx="279.79" cy="181.83" r="3.91"/>
                <circle cx="279.79" cy="267.54" r="3.91"/>
                <circle cx="279.79" cy="181.83" r="3.91"/>
                <circle cx="317.37" cy="183.42" r="3.91"/>
                <circle cx="234.69" cy="194.53" r="3.91"/>
                <circle cx="400.05" cy="211.99" r="3.91"/>
                <circle cx="212.14" cy="172.31" r="3.91"/>
                <circle cx="294.82" cy="199.29" r="3.91"/>
                <circle cx="302.34" cy="226.27" r="3.91"/>
                <circle cx="317.37" cy="173.89" r="3.91"/>
                <circle cx="257.24" cy="264.36" r="3.91"/>
                <circle cx="332.4" cy="185" r="3.91"/>
                <circle cx="212.14" cy="315.15" r="3.91"/>
                <circle cx="287.3" cy="161.2" r="3.91"/>
                <circle cx="242.2" cy="272.3" r="3.91"/>
                <circle cx="332.4" cy="207.22" r="3.91"/>
                <circle cx="324.89" cy="192.94" r="3.91"/>
                <circle cx="264.75" cy="265.95" r="3.91"/>
                <circle cx="354.95" cy="165.96" r="3.91"/>
                <circle cx="227.17" cy="246.9" r="3.91"/>
                <circle cx="272.27" cy="264.36" r="3.91"/>
                <circle cx="362.47" cy="104.06" r="3.91"/>
                <circle cx="324.89" cy="299.28" r="3.91"/>
                <circle cx="257.24" cy="202.46" r="3.91"/>
                <circle cx="385.02" cy="183.42" r="3.91"/>
                <circle cx="294.82" cy="192.94" r="3.91"/>
            </g>
        </g>
        <g>
            <g transform="matrix(1,0,0,1,67.35,361.13)">
                <text x="-19.577px" y="0px" style="font-family:'ArialMT', 'Arial', sans-serif;font-size:17.6px;fill:rgb(77,77,77);">40</text>
            </g>
            <g transform="matrix(1,0,0,1,67.35,202.41)">
                <text x="-19.577px" y="0px" style="font-family:'ArialMT', 'Arial', sans-serif;font-size:17.6px;fill:rgb(77,77,77);">50</text>
            </g>
            <g transform="matrix(1,0,0,1,67.35,43.69)">
                <text x="-19.577px" y="0px" style="font-family:'ArialMT', 'Arial', sans-serif;font-size:17.6px;fill:rgb(77,77,77);">60</text>
            </g>
            <path d="M71.73,354.83L77.21,354.83" style="fill:none;fill-rule:nonzero;stroke:rgb(51,51,51);stroke-width:2.13px;"/>
            <path d="M71.73,196.11L77.21,196.11" style="fill:none;fill-rule:nonzero;stroke:rgb(51,51,51);stroke-width:2.13px;"/>
            <path d="M71.73,37.39L77.21,37.39" style="fill:none;fill-rule:nonzero;stroke:rgb(51,51,51);stroke-width:2.13px;"/>
            <path d="M84.35,507.53L84.35,502.05" style="fill:none;fill-rule:nonzero;stroke:rgb(51,51,51);stroke-width:2.13px;"/>
            <path d="M159.52,507.53L159.52,502.05" style="fill:none;fill-rule:nonzero;stroke:rgb(51,51,51);stroke-width:2.13px;"/>
            <path d="M234.69,507.53L234.69,502.05" style="fill:none;fill-rule:nonzero;stroke:rgb(51,51,51);stroke-width:2.13px;"/>
            <path d="M309.85,507.53L309.85,502.05" style="fill:none;fill-rule:nonzero;stroke:rgb(51,51,51);stroke-width:2.13px;"/>
            <path d="M385.02,507.53L385.02,502.05" style="fill:none;fill-rule:nonzero;stroke:rgb(51,51,51);stroke-width:2.13px;"/>
            <path d="M460.18,507.53L460.18,502.05" style="fill:none;fill-rule:nonzero;stroke:rgb(51,51,51);stroke-width:2.13px;"/>
            <path d="M535.35,507.53L535.35,502.05" style="fill:none;fill-rule:nonzero;stroke:rgb(51,51,51);stroke-width:2.13px;"/>
            <g transform="matrix(1,0,0,1,84.35,524.51)">
                <text x="-14.682px" y="0px" style="font-family:'ArialMT', 'Arial', sans-serif;font-size:17.6px;fill:rgb(77,77,77);">170</text>
            </g>
            <g transform="matrix(1,0,0,1,159.52,524.51)">
                <text x="-14.682px" y="0px" style="font-family:'ArialMT', 'Arial', sans-serif;font-size:17.6px;fill:rgb(77,77,77);">180</text>
            </g>
            <g transform="matrix(1,0,0,1,234.69,524.51)">
                <text x="-14.682px" y="0px" style="font-family:'ArialMT', 'Arial', sans-serif;font-size:17.6px;fill:rgb(77,77,77);">190</text>
            </g>
            <g transform="matrix(1,0,0,1,309.85,524.51)">
                <text x="-14.682px" y="0px" style="font-family:'ArialMT', 'Arial', sans-serif;font-size:17.6px;fill:rgb(77,77,77);">200</text>
            </g>
            <g transform="matrix(1,0,0,1,385.02,524.51)">
                <text x="-14.682px" y="0px" style="font-family:'ArialMT', 'Arial', sans-serif;font-size:17.6px;fill:rgb(77,77,77);">210</text>
            </g>
            <g transform="matrix(1,0,0,1,460.18,524.51)">
                <text x="-14.682px" y="0px" style="font-family:'ArialMT', 'Arial', sans-serif;font-size:17.6px;fill:rgb(77,77,77);">220</text>
            </g>
            <g transform="matrix(1,0,0,1,535.35,524.51)">
                <text x="-14.682px" y="0px" style="font-family:'ArialMT', 'Arial', sans-serif;font-size:17.6px;fill:rgb(77,77,77);">230</text>
            </g>
            <g transform="matrix(1,0,0,1,321.13,549.45)">
                <g transform="matrix(22,0,0,22,-50.7568,0)">
                </g>
                <g transform="matrix(22,0,0,22,-44.6445,0)">
                </g>
                <text x="-50.757px" y="0px" style="font-family:'ArialMT', 'Arial', sans-serif;font-size:22px;">ﬂipper_len</text>
            </g>
            <g transform="matrix(-3.82857e-16,-1,1,-3.82857e-16,37.67,261.98)">
                <text x="-34.246px" y="0px" style="font-family:'ArialMT', 'Arial', sans-serif;font-size:22px;">bill_len</text>
            </g>
        </g>
        <g>
            <clipPath id="_clip4">
                <rect x="576" y="10.96" width="565.04" height="277.04"/>
            </clipPath>
            <g clip-path="url(#_clip4)">
                <rect x="576" y="10.96" width="565.04" height="277.04" style="fill:white;stroke:white;stroke-width:2.13px;"/>
            </g>
        </g>
        <g>
            <clipPath id="_clip5">
                <rect x="576" y="288" width="565.04" height="277.04"/>
            </clipPath>
            <g clip-path="url(#_clip5)">
                <rect x="576" y="288" width="565.04" height="277.04" style="fill:white;stroke:white;stroke-width:2.13px;"/>
            </g>
        </g>
        <g>
            <clipPath id="_clip6">
                <rect x="642.25" y="21.92" width="487.83" height="203.09"/>
            </clipPath>
            <g clip-path="url(#_clip6)">
                <rect x="642.25" y="21.92" width="487.83" height="203.09" style="fill:rgb(235,235,235);"/>
                <path d="M642.25,189.4L1130.08,189.4" style="fill:none;fill-rule:nonzero;stroke:white;stroke-width:1.07px;"/>
                <path d="M642.25,136.65L1130.08,136.65" style="fill:none;fill-rule:nonzero;stroke:white;stroke-width:1.07px;"/>
                <path d="M642.25,83.9L1130.08,83.9" style="fill:none;fill-rule:nonzero;stroke:white;stroke-width:1.07px;"/>
                <path d="M642.25,31.15L1130.08,31.15" style="fill:none;fill-rule:nonzero;stroke:white;stroke-width:1.07px;"/>
                <path d="M657.29,225.01L657.29,21.92" style="fill:none;fill-rule:nonzero;stroke:white;stroke-width:1.07px;"/>
                <path d="M802.61,225.01L802.61,21.92" style="fill:none;fill-rule:nonzero;stroke:white;stroke-width:1.07px;"/>
                <path d="M947.93,225.01L947.93,21.92" style="fill:none;fill-rule:nonzero;stroke:white;stroke-width:1.07px;"/>
                <path d="M1093.25,225.01L1093.25,21.92" style="fill:none;fill-rule:nonzero;stroke:white;stroke-width:1.07px;"/>
                <path d="M642.25,215.78L1130.08,215.78" style="fill:none;fill-rule:nonzero;stroke:white;stroke-width:2.13px;"/>
                <path d="M642.25,163.03L1130.08,163.03" style="fill:none;fill-rule:nonzero;stroke:white;stroke-width:2.13px;"/>
                <path d="M642.25,110.27L1130.08,110.27" style="fill:none;fill-rule:nonzero;stroke:white;stroke-width:2.13px;"/>
                <path d="M642.25,57.52L1130.08,57.52" style="fill:none;fill-rule:nonzero;stroke:white;stroke-width:2.13px;"/>
                <path d="M729.95,225.01L729.95,21.92" style="fill:none;fill-rule:nonzero;stroke:white;stroke-width:2.13px;"/>
                <path d="M875.27,225.01L875.27,21.92" style="fill:none;fill-rule:nonzero;stroke:white;stroke-width:2.13px;"/>
                <path d="M1020.59,225.01L1020.59,21.92" style="fill:none;fill-rule:nonzero;stroke:white;stroke-width:2.13px;"/>
                <rect x="664.43" y="210.5" width="14.78" height="5.28" style="fill:rgb(89,89,89);"/>
                <rect x="679.21" y="210.5" width="14.78" height="5.28" style="fill:rgb(89,89,89);"/>
                <rect x="693.99" y="210.5" width="14.78" height="5.28" style="fill:rgb(89,89,89);"/>
                <rect x="708.78" y="189.4" width="14.78" height="26.38" style="fill:rgb(89,89,89);"/>
                <rect x="723.56" y="152.48" width="14.78" height="63.3" style="fill:rgb(89,89,89);"/>
                <rect x="738.34" y="189.4" width="14.78" height="26.38" style="fill:rgb(89,89,89);"/>
                <rect x="753.12" y="131.38" width="14.78" height="84.4" style="fill:rgb(89,89,89);"/>
                <rect x="767.91" y="94.45" width="14.78" height="121.33" style="fill:rgb(89,89,89);"/>
                <rect x="782.69" y="147.2" width="14.78" height="68.58" style="fill:rgb(89,89,89);"/>
                <rect x="797.47" y="31.15" width="14.78" height="184.63" style="fill:rgb(89,89,89);"/>
                <rect x="812.25" y="99.72" width="14.78" height="116.05" style="fill:rgb(89,89,89);"/>
                <rect x="827.04" y="99.72" width="14.78" height="116.05" style="fill:rgb(89,89,89);"/>
                <rect x="841.82" y="110.27" width="14.78" height="105.5" style="fill:rgb(89,89,89);"/>
                <rect x="856.6" y="141.93" width="14.78" height="73.85" style="fill:rgb(89,89,89);"/>
                <rect x="871.39" y="163.03" width="14.78" height="52.75" style="fill:rgb(89,89,89);"/>
                <rect x="886.17" y="168.3" width="14.78" height="47.48" style="fill:rgb(89,89,89);"/>
                <rect x="900.95" y="199.95" width="14.78" height="15.83" style="fill:rgb(89,89,89);"/>
                <rect x="915.73" y="199.95" width="14.78" height="15.83" style="fill:rgb(89,89,89);"/>
                <rect x="930.52" y="147.2" width="14.78" height="68.58" style="fill:rgb(89,89,89);"/>
                <rect x="945.3" y="131.38" width="14.78" height="84.4" style="fill:rgb(89,89,89);"/>
                <rect x="960.08" y="147.2" width="14.78" height="68.58" style="fill:rgb(89,89,89);"/>
                <rect x="974.86" y="120.83" width="14.78" height="94.95" style="fill:rgb(89,89,89);"/>
                <rect x="989.65" y="141.93" width="14.78" height="73.85" style="fill:rgb(89,89,89);"/>
                <rect x="1004.43" y="163.03" width="14.78" height="52.75" style="fill:rgb(89,89,89);"/>
                <rect x="1019.21" y="147.2" width="14.78" height="68.58" style="fill:rgb(89,89,89);"/>
                <rect x="1033.99" y="173.58" width="14.78" height="42.2" style="fill:rgb(89,89,89);"/>
                <rect x="1048.78" y="178.85" width="14.78" height="36.93" style="fill:rgb(89,89,89);"/>
                <rect x="1063.56" y="210.5" width="14.78" height="5.28" style="fill:rgb(89,89,89);"/>
                <rect x="1078.34" y="184.13" width="14.78" height="31.65" style="fill:rgb(89,89,89);"/>
                <rect x="1093.13" y="173.58" width="14.78" height="42.2" style="fill:rgb(89,89,89);"/>
            </g>
        </g>
        <g>
            <g transform="matrix(1,0,0,1,632.39,222.08)">
                <text x="-9.788px" y="0px" style="font-family:'ArialMT', 'Arial', sans-serif;font-size:17.6px;fill:rgb(77,77,77);">0</text>
            </g>
            <g transform="matrix(1,0,0,1,632.39,169.33)">
                <text x="-19.577px" y="0px" style="font-family:'ArialMT', 'Arial', sans-serif;font-size:17.6px;fill:rgb(77,77,77);">10</text>
            </g>
            <g transform="matrix(1,0,0,1,632.39,116.57)">
                <text x="-19.577px" y="0px" style="font-family:'ArialMT', 'Arial', sans-serif;font-size:17.6px;fill:rgb(77,77,77);">20</text>
            </g>
            <g transform="matrix(1,0,0,1,632.39,63.82)">
                <text x="-19.577px" y="0px" style="font-family:'ArialMT', 'Arial', sans-serif;font-size:17.6px;fill:rgb(77,77,77);">30</text>
            </g>
            <path d="M636.77,215.78L642.25,215.78" style="fill:none;fill-rule:nonzero;stroke:rgb(51,51,51);stroke-width:2.13px;"/>
            <path d="M636.77,163.03L642.25,163.03" style="fill:none;fill-rule:nonzero;stroke:rgb(51,51,51);stroke-width:2.13px;"/>
            <path d="M636.77,110.27L642.25,110.27" style="fill:none;fill-rule:nonzero;stroke:rgb(51,51,51);stroke-width:2.13px;"/>
            <path d="M636.77,57.52L642.25,57.52" style="fill:none;fill-rule:nonzero;stroke:rgb(51,51,51);stroke-width:2.13px;"/>
            <path d="M729.95,230.49L729.95,225.01" style="fill:none;fill-rule:nonzero;stroke:rgb(51,51,51);stroke-width:2.13px;"/>
            <path d="M875.27,230.49L875.27,225.01" style="fill:none;fill-rule:nonzero;stroke:rgb(51,51,51);stroke-width:2.13px;"/>
            <path d="M1020.59,230.49L1020.59,225.01" style="fill:none;fill-rule:nonzero;stroke:rgb(51,51,51);stroke-width:2.13px;"/>
            <g transform="matrix(1,0,0,1,729.95,247.47)">
                <text x="-14.682px" y="0px" style="font-family:'ArialMT', 'Arial', sans-serif;font-size:17.6px;fill:rgb(77,77,77);">180</text>
            </g>
            <g transform="matrix(1,0,0,1,875.27,247.47)">
                <text x="-14.682px" y="0px" style="font-family:'ArialMT', 'Arial', sans-serif;font-size:17.6px;fill:rgb(77,77,77);">200</text>
            </g>
            <g transform="matrix(1,0,0,1,1020.59,247.47)">
                <text x="-14.682px" y="0px" style="font-family:'ArialMT', 'Arial', sans-serif;font-size:17.6px;fill:rgb(77,77,77);">220</text>
            </g>
            <g transform="matrix(1,0,0,1,886.17,272.4)">
                <g transform="matrix(22,0,0,22,-50.7568,0)">
                </g>
                <g transform="matrix(22,0,0,22,-44.6445,0)">
                </g>
                <text x="-50.757px" y="0px" style="font-family:'ArialMT', 'Arial', sans-serif;font-size:22px;">ﬂipper_len</text>
            </g>
            <g transform="matrix(-3.82857e-16,-1,1,-3.82857e-16,602.71,123.46)">
                <text x="-26.909px" y="0px" style="font-family:'ArialMT', 'Arial', sans-serif;font-size:22px;">count</text>
            </g>
        </g>
        <g>
            <clipPath id="_clip7">
                <rect x="642.25" y="298.96" width="487.83" height="203.09"/>
            </clipPath>
            <g clip-path="url(#_clip7)">
                <rect x="642.25" y="298.96" width="487.83" height="203.09" style="fill:rgb(235,235,235);"/>
                <path d="M642.25,473.35L1130.08,473.35" style="fill:none;fill-rule:nonzero;stroke:white;stroke-width:1.07px;"/>
                <path d="M642.25,406.21L1130.08,406.21" style="fill:none;fill-rule:nonzero;stroke:white;stroke-width:1.07px;"/>
                <path d="M642.25,339.07L1130.08,339.07" style="fill:none;fill-rule:nonzero;stroke:white;stroke-width:1.07px;"/>
                <path d="M642.25,439.78L1130.08,439.78" style="fill:none;fill-rule:nonzero;stroke:white;stroke-width:2.13px;"/>
                <path d="M642.25,372.64L1130.08,372.64" style="fill:none;fill-rule:nonzero;stroke:white;stroke-width:2.13px;"/>
                <path d="M642.25,305.5L1130.08,305.5" style="fill:none;fill-rule:nonzero;stroke:white;stroke-width:2.13px;"/>
                <path d="M733.72,502.05L733.72,298.96" style="fill:none;fill-rule:nonzero;stroke:white;stroke-width:2.13px;"/>
                <path d="M886.17,502.05L886.17,298.96" style="fill:none;fill-rule:nonzero;stroke:white;stroke-width:2.13px;"/>
                <path d="M1038.61,502.05L1038.61,298.96" style="fill:none;fill-rule:nonzero;stroke:white;stroke-width:2.13px;"/>
                <path d="M733.72,434.74L733.72,399.5" style="fill:none;fill-rule:nonzero;stroke:rgb(51,51,51);stroke-width:2.13px;"/>
                <path d="M733.72,461.6L733.72,492.82" style="fill:none;fill-rule:nonzero;stroke:rgb(51,51,51);stroke-width:2.13px;"/>
                <rect x="676.55" y="434.74" width="114.34" height="26.86" style="fill:white;fill-rule:nonzero;stroke:rgb(51,51,51);stroke-width:2.13px;"/>
                <path d="M676.55,447.84L790.89,447.84" style="fill:none;fill-rule:nonzero;stroke:rgb(51,51,51);stroke-width:4.27px;"/>
                <path d="M886.17,365.42L886.17,318.93" style="fill:none;fill-rule:nonzero;stroke:rgb(51,51,51);stroke-width:2.13px;"/>
                <path d="M886.17,397.15L886.17,433.74" style="fill:none;fill-rule:nonzero;stroke:rgb(51,51,51);stroke-width:2.13px;"/>
                <rect x="829" y="365.42" width="114.34" height="31.73" style="fill:white;fill-rule:nonzero;stroke:rgb(51,51,51);stroke-width:2.13px;"/>
                <path d="M829,375.66L943.34,375.66" style="fill:none;fill-rule:nonzero;stroke:rgb(51,51,51);stroke-width:4.27px;"/>
                <circle cx="1038.61" cy="308.19" r="3.91" style="fill:rgb(51,51,51);stroke:rgb(51,51,51);stroke-width:1.42px;"/>
                <path d="M1038.61,375.66L1038.61,333.03" style="fill:none;fill-rule:nonzero;stroke:rgb(51,51,51);stroke-width:2.13px;"/>
                <path d="M1038.61,404.2L1038.61,433.74" style="fill:none;fill-rule:nonzero;stroke:rgb(51,51,51);stroke-width:2.13px;"/>
                <rect x="981.45" y="375.66" width="114.33" height="28.54" style="fill:white;fill-rule:nonzero;stroke:rgb(51,51,51);stroke-width:2.13px;"/>
                <path d="M981.45,390.77L1095.78,390.77" style="fill:none;fill-rule:nonzero;stroke:rgb(51,51,51);stroke-width:4.27px;"/>
            </g>
        </g>
        <g>
            <g transform="matrix(1,0,0,1,632.39,446.08)">
                <text x="-19.577px" y="0px" style="font-family:'ArialMT', 'Arial', sans-serif;font-size:17.6px;fill:rgb(77,77,77);">40</text>
            </g>
            <g transform="matrix(1,0,0,1,632.39,378.94)">
                <text x="-19.577px" y="0px" style="font-family:'ArialMT', 'Arial', sans-serif;font-size:17.6px;fill:rgb(77,77,77);">50</text>
            </g>
            <g transform="matrix(1,0,0,1,632.39,311.8)">
                <text x="-19.577px" y="0px" style="font-family:'ArialMT', 'Arial', sans-serif;font-size:17.6px;fill:rgb(77,77,77);">60</text>
            </g>
            <path d="M636.77,439.78L642.25,439.78" style="fill:none;fill-rule:nonzero;stroke:rgb(51,51,51);stroke-width:2.13px;"/>
            <path d="M636.77,372.64L642.25,372.64" style="fill:none;fill-rule:nonzero;stroke:rgb(51,51,51);stroke-width:2.13px;"/>
            <path d="M636.77,305.5L642.25,305.5" style="fill:none;fill-rule:nonzero;stroke:rgb(51,51,51);stroke-width:2.13px;"/>
            <path d="M733.72,507.53L733.72,502.05" style="fill:none;fill-rule:nonzero;stroke:rgb(51,51,51);stroke-width:2.13px;"/>
            <path d="M886.17,507.53L886.17,502.05" style="fill:none;fill-rule:nonzero;stroke:rgb(51,51,51);stroke-width:2.13px;"/>
            <path d="M1038.61,507.53L1038.61,502.05" style="fill:none;fill-rule:nonzero;stroke:rgb(51,51,51);stroke-width:2.13px;"/>
            <g transform="matrix(1,0,0,1,733.72,524.51)">
                <text x="-24.462px" y="0px" style="font-family:'ArialMT', 'Arial', sans-serif;font-size:17.6px;fill:rgb(77,77,77);">Adelie</text>
            </g>
            <g transform="matrix(1,0,0,1,886.17,524.51)">
                <text x="-37.662px" y="0px" style="font-family:'ArialMT', 'Arial', sans-serif;font-size:17.6px;fill:rgb(77,77,77);">Chinstrap</text>
            </g>
            <g transform="matrix(1,0,0,1,1038.61,524.51)">
                <text x="-28.866px" y="0px" style="font-family:'ArialMT', 'Arial', sans-serif;font-size:17.6px;fill:rgb(77,77,77);">Gentoo</text>
            </g>
            <g transform="matrix(1,0,0,1,886.17,549.45)">
                <text x="-37.297px" y="0px" style="font-family:'ArialMT', 'Arial', sans-serif;font-size:22px;">species</text>
            </g>
            <g transform="matrix(-3.82857e-16,-1,1,-3.82857e-16,602.71,400.5)">
                <text x="-34.246px" y="0px" style="font-family:'ArialMT', 'Arial', sans-serif;font-size:22px;">bill_len</text>
            </g>
        </g>
    </g>
    <rect x="0" y="0" width="1152" height="576" style="fill:white;fill-opacity:0.7;"/>
    <g transform="matrix(1,0,0,1,135.573,-0.980106)">
        <g transform="matrix(30,0,0,30,246.578,550.43)">
        </g>
        <text x="123.252px" y="550.43px" style="font-family:'Arial-BoldMT', 'Arial', sans-serif;font-weight:700;font-size:30px;">GUTTER</text>
    </g>
    <g transform="matrix(1,0,0,1,700.613,-0.980106)">
        <g transform="matrix(30,0,0,30,246.578,550.43)">
        </g>
        <text x="123.252px" y="550.43px" style="font-family:'Arial-BoldMT', 'Arial', sans-serif;font-weight:700;font-size:30px;">GUTTER</text>
    </g>
    <g transform="matrix(6.12323e-17,-1,1,6.12323e-17,-503.131,447.537)">
        <g transform="matrix(30,0,0,30,246.578,550.43)">
        </g>
        <text x="123.252px" y="550.43px" style="font-family:'Arial-BoldMT', 'Arial', sans-serif;font-weight:700;font-size:30px;">GUTTER</text>
    </g>
    <g transform="matrix(6.12323e-17,-1,1,6.12323e-17,63.9522,447.537)">
        <g transform="matrix(30,0,0,30,246.578,550.43)">
        </g>
        <text x="123.252px" y="550.43px" style="font-family:'Arial-BoldMT', 'Arial', sans-serif;font-weight:700;font-size:30px;">GUTTER</text>
    </g>
    <g transform="matrix(1,0,0,1,-1.05628,31.2686)">
        <g transform="matrix(64,0,0,64,401.775,256.731)">
        </g>
        <text x="241.681px" y="256.731px" style="font-family:'ArialMT', 'Arial', sans-serif;font-size:64px;">CELL</text>
    </g>
    <g transform="matrix(1,0,0,1,563.984,31.2686)">
        <g transform="matrix(64,0,0,64,401.775,256.731)">
        </g>
        <text x="241.681px" y="256.731px" style="font-family:'ArialMT', 'Arial', sans-serif;font-size:64px;">CELL</text>
    </g>
    <g transform="matrix(1.07184,0,0,1,-82.7566,0)">
        <path d="M77.21,21.92L1152,21.92" style="fill:none;stroke:black;stroke-width:2.89px;stroke-linecap:round;stroke-linejoin:round;stroke-miterlimit:1.5;"/>
    </g>
    <g transform="matrix(1.08878,0,0,1,-102.276,5.68434e-14)">
        <path d="M93.936,502.05L1152,502.05" style="fill:none;stroke:black;stroke-width:2.87px;stroke-linecap:round;stroke-linejoin:round;stroke-miterlimit:1.5;"/>
    </g>
    <g transform="matrix(1,0,0,1.12877,0,-74.1728)">
        <path d="M77.21,65.711L77.21,576" style="fill:none;stroke:black;stroke-width:2.81px;stroke-linecap:round;stroke-linejoin:round;stroke-miterlimit:1.5;"/>
    </g>
    <g transform="matrix(1,0,0,1.03956,0,-22.7872)">
        <path d="M565.04,21.92L565.04,576" style="fill:none;stroke:black;stroke-width:2.94px;stroke-linecap:round;stroke-linejoin:round;stroke-miterlimit:1.5;"/>
    </g>
    <g transform="matrix(1,0,0,1.12877,0,-74.1728)">
        <path d="M642.25,65.711L642.25,576" style="fill:none;stroke:black;stroke-width:2.81px;stroke-linecap:round;stroke-linejoin:round;stroke-miterlimit:1.5;"/>
    </g>
    <g transform="matrix(1,0,0,1.15702,0,-90.4407)">
        <path d="M1130.08,78.167L1130.08,576" style="fill:none;stroke:black;stroke-width:2.77px;stroke-linecap:round;stroke-linejoin:round;stroke-miterlimit:1.5;"/>
    </g>
</svg>
